HIERARCHY
ROOT Hips
{
	OFFSET 0.000000 0.000003 98.339821
	CHANNELS 6 Xposition Yposition Zposition Xrotation Yrotation Zrotation
	JOINT Spine
	{
		OFFSET -0.000000 0.779700 11.654701
		CHANNELS 6 Xposition Yposition Zposition Xrotation Yrotation Zrotation
		JOINT Spine1
		{
			OFFSET 0.000000 0.909652 13.597115
			CHANNELS 6 Xposition Yposition Zposition Xrotation Yrotation Zrotation
			JOINT Spine2
			{
				OFFSET 0.000000 1.039600 15.539558
				CHANNELS 6 Xposition Yposition Zposition Xrotation Yrotation Zrotation
				JOINT Neck
				{
					OFFSET -0.000000 1.169554 17.482025
					CHANNELS 6 Xposition Yposition Zposition Xrotation Yrotation Zrotation
					JOINT Head
					{
						OFFSET 0.000000 -0.288901 0.554123
						CHANNELS 6 Xposition Yposition Zposition Xrotation Yrotation Zrotation
						JOINT End
						{
							OFFSET -0.000000 -12.743003 24.441910
							CHANNELS 6 Xposition Yposition Zposition Xrotation Yrotation Zrotation
							End Site
							{
								OFFSET -0.000000 0.000001 27.564316
							}
						}
					}
				}
				JOINT LeftShoulder
				{
					OFFSET 7.385900 1.218602 16.359039
					CHANNELS 6 Xposition Yposition Zposition Xrotation Yrotation Zrotation
					JOINT LeftArm
					{
						OFFSET 14.581853 0.098127 -1.903580
						CHANNELS 3 Xrotation Yrotation Zrotation
						JOINT LeftForeArm
						{
							OFFSET 23.492994 0.000001 -0.000015
							CHANNELS 3 Xrotation Yrotation Zrotation
							JOINT LeftHand
							{
								OFFSET 27.658508 -0.000001 0.000000
								CHANNELS 3 Xrotation Yrotation Zrotation
								JOINT LeftHandThumb1
								{
									OFFSET 3.024025 -2.688755 -0.384903
									CHANNELS 6 Xposition Yposition Zposition Xrotation Yrotation Zrotation
									JOINT LeftHandThumb2
									{
										OFFSET 2.518883 -1.454269 -1.454254
										CHANNELS 6 Xposition Yposition Zposition Xrotation Yrotation Zrotation
										JOINT LeftHandThumb3
										{
											OFFSET 2.700439 -1.559110 -1.559113
											CHANNELS 6 Xposition Yposition Zposition Xrotation Yrotation Zrotation
											JOINT LeftHandThumb4
											{
												OFFSET 2.400597 -1.385966 -1.386017
												CHANNELS 6 Xposition Yposition Zposition Xrotation Yrotation Zrotation
												End Site
												{
													OFFSET 2.608994 -0.989854 -1.348373
												}
											}
										}
									}
								}
								JOINT LeftHandIndex1
								{
									OFFSET 10.221840 -2.176329 -0.339508
									CHANNELS 6 Xposition Yposition Zposition Xrotation Yrotation Zrotation
									JOINT LeftHandIndex2
									{
										OFFSET 3.036621 0.000000 0.000015
										CHANNELS 6 Xposition Yposition Zposition Xrotation Yrotation Zrotation
										JOINT LeftHandIndex3
										{
											OFFSET 2.891197 0.000000 0.000000
											CHANNELS 6 Xposition Yposition Zposition Xrotation Yrotation Zrotation
											JOINT LeftHandIndex4
											{
												OFFSET 2.665298 -0.000002 -0.000015
												CHANNELS 6 Xposition Yposition Zposition Xrotation Yrotation Zrotation
												End Site
												{
													OFFSET 2.629494 -0.383442 -0.206253
												}
											}
										}
									}
								}
								JOINT LeftHandMiddle1
								{
									OFFSET 9.958984 0.000000 0.000015
									CHANNELS 6 Xposition Yposition Zposition Xrotation Yrotation Zrotation
									JOINT LeftHandMiddle2
									{
										OFFSET 4.455513 0.000000 -0.000031
										CHANNELS 6 Xposition Yposition Zposition Xrotation Yrotation Zrotation
										JOINT LeftHandMiddle3
										{
											OFFSET 2.950943 -0.000001 0.000000
											CHANNELS 6 Xposition Yposition Zposition Xrotation Yrotation Zrotation
											JOINT LeftHandMiddle4
											{
												OFFSET 2.632904 0.000001 0.000015
												CHANNELS 6 Xposition Yposition Zposition Xrotation Yrotation Zrotation
												End Site
												{
													OFFSET 2.632904 0.000700 0.000000
												}
											}
										}
									}
								}
								JOINT LeftHandRing1
								{
									OFFSET 9.774574 1.949942 -0.033600
									CHANNELS 6 Xposition Yposition Zposition Xrotation Yrotation Zrotation
									JOINT LeftHandRing2
									{
										OFFSET 4.281693 -0.000002 -0.000015
										CHANNELS 6 Xposition Yposition Zposition Xrotation Yrotation Zrotation
										JOINT LeftHandRing3
										{
											OFFSET 2.522469 -0.000001 -0.000015
											CHANNELS 6 Xposition Yposition Zposition Xrotation Yrotation Zrotation
											JOINT LeftHandRing4
											{
												OFFSET 2.283394 0.000003 0.000031
												CHANNELS 6 Xposition Yposition Zposition Xrotation Yrotation Zrotation
												End Site
												{
													OFFSET 2.283394 0.002100 -0.000015
												}
											}
										}
									}
								}
								JOINT LeftHandPinky1
								{
									OFFSET 8.744835 4.021742 -0.313782
									CHANNELS 6 Xposition Yposition Zposition Xrotation Yrotation Zrotation
									JOINT LeftHandPinky2
									{
										OFFSET 2.903610 -0.000001 0.000000
										CHANNELS 6 Xposition Yposition Zposition Xrotation Yrotation Zrotation
										JOINT LeftHandPinky3
										{
											OFFSET 2.485115 0.000001 0.000046
											CHANNELS 6 Xposition Yposition Zposition Xrotation Yrotation Zrotation
											JOINT LeftHandPinky4
											{
												OFFSET 1.892288 0.000001 -0.000031
												CHANNELS 6 Xposition Yposition Zposition Xrotation Yrotation Zrotation
												End Site
												{
													OFFSET 1.892281 0.005100 -0.000015
												}
											}
										}
									}
								}
							}
						}
					}
				}
				JOINT RightShoulder
				{
					OFFSET -7.385900 1.120482 16.358978
					CHANNELS 6 Xposition Yposition Zposition Xrotation Yrotation Zrotation
					JOINT RightArm
					{
						OFFSET -14.581844 -0.098141 -1.903534
						CHANNELS 3 Xrotation Yrotation Zrotation
						JOINT RightForeArm
						{
							OFFSET -23.527105 -0.000002 0.000000
							CHANNELS 3 Xrotation Yrotation Zrotation
							JOINT RightHand
							{
								OFFSET -27.655586 -0.000001 0.000015
								CHANNELS 3 Xrotation Yrotation Zrotation
								JOINT RightHandThumb1
								{
									OFFSET -3.318489 -2.716118 -0.373352
									CHANNELS 6 Xposition Yposition Zposition Xrotation Yrotation Zrotation
									JOINT RightHandThumb2
									{
										OFFSET -2.667488 -1.540061 -1.540054
										CHANNELS 6 Xposition Yposition Zposition Xrotation Yrotation Zrotation
										JOINT RightHandThumb3
										{
											OFFSET -2.582230 -1.490857 -1.490891
											CHANNELS 6 Xposition Yposition Zposition Xrotation Yrotation Zrotation
											JOINT RightHandThumb4
											{
												OFFSET -2.023804 -1.168455 -1.168442
												CHANNELS 6 Xposition Yposition Zposition Xrotation Yrotation Zrotation
												End Site
												{
													OFFSET -2.029236 -1.159470 -1.167969
												}
											}
										}
									}
								}
								JOINT RightHandIndex1
								{
									OFFSET -10.437447 -2.304653 -0.071243
									CHANNELS 6 Xposition Yposition Zposition Xrotation Yrotation Zrotation
									JOINT RightHandIndex2
									{
										OFFSET -3.030510 -0.000000 0.000000
										CHANNELS 3 Xrotation Yrotation Zrotation
										JOINT RightHandIndex3
										{
											OFFSET -2.976311 -0.000000 -0.000015
											CHANNELS 6 Xposition Yposition Zposition Xrotation Yrotation Zrotation
											JOINT RightHandIndex4
											{
												OFFSET -2.474922 0.000001 0.000015
												CHANNELS 6 Xposition Yposition Zposition Xrotation Yrotation Zrotation
												End Site
												{
													OFFSET -2.474915 0.004500 -0.000061
												}
											}
										}
									}
								}
								JOINT RightHandMiddle1
								{
									OFFSET -10.430138 -0.000001 0.000000
									CHANNELS 6 Xposition Yposition Zposition Xrotation Yrotation Zrotation
									JOINT RightHandMiddle2
									{
										OFFSET -3.371109 0.000000 -0.000031
										CHANNELS 6 Xposition Yposition Zposition Xrotation Yrotation Zrotation
										JOINT RightHandMiddle3
										{
											OFFSET -3.308311 0.000000 0.000031
											CHANNELS 6 Xposition Yposition Zposition Xrotation Yrotation Zrotation
											JOINT RightHandMiddle4
											{
												OFFSET -2.817612 0.000000 -0.000015
												CHANNELS 6 Xposition Yposition Zposition Xrotation Yrotation Zrotation
												End Site
												{
													OFFSET -2.817612 -0.002500 0.000000
												}
											}
										}
									}
								}
								JOINT RightHandRing1
								{
									OFFSET -10.235458 1.889333 0.259399
									CHANNELS 6 Xposition Yposition Zposition Xrotation Yrotation Zrotation
									JOINT RightHandRing2
									{
										OFFSET -3.114136 0.000001 0.000000
										CHANNELS 6 Xposition Yposition Zposition Xrotation Yrotation Zrotation
										JOINT RightHandRing3
										{
											OFFSET -2.952385 0.000000 0.000000
											CHANNELS 6 Xposition Yposition Zposition Xrotation Yrotation Zrotation
											JOINT RightHandRing4
											{
												OFFSET -2.603813 -0.000001 -0.000031
												CHANNELS 6 Xposition Yposition Zposition Xrotation Yrotation Zrotation
												End Site
												{
													OFFSET -2.603813 0.000300 0.000000
												}
											}
										}
									}
								}
								JOINT RightHandPinky1
								{
									OFFSET -8.570015 3.954552 -0.153488
									CHANNELS 6 Xposition Yposition Zposition Xrotation Yrotation Zrotation
									JOINT RightHandPinky2
									{
										OFFSET -2.966904 0.000001 -0.000046
										CHANNELS 6 Xposition Yposition Zposition Xrotation Yrotation Zrotation
										JOINT RightHandPinky3
										{
											OFFSET -2.534714 -0.000000 0.000046
											CHANNELS 6 Xposition Yposition Zposition Xrotation Yrotation Zrotation
											JOINT RightHandPinky4
											{
												OFFSET -2.244194 -0.000000 0.000000
												CHANNELS 6 Xposition Yposition Zposition Xrotation Yrotation Zrotation
												End Site
												{
													OFFSET -2.244194 0.001100 0.000015
												}
											}
										}
									}
								}
							}
						}
					}
				}
			}
		}
	}
	JOINT LeftUpLeg
	{
		OFFSET 11.550200 -0.044500 -6.484497
		CHANNELS 6 Xposition Yposition Zposition Xrotation Yrotation Zrotation
		JOINT LeftLeg
		{
			OFFSET -1.017444 4.425870 -42.346886
			CHANNELS 3 Xrotation Yrotation Zrotation
			JOINT LeftFoot
			{
				OFFSET 1.017438 4.546802 -36.540363
				CHANNELS 3 Xrotation Yrotation Zrotation
				JOINT LeftToeBase
				{
					OFFSET 4.050714 -14.350672 -11.935522
					CHANNELS 6 Xposition Yposition Zposition Xrotation Yrotation Zrotation
					JOINT End.001
					{
						OFFSET 1.932000 -7.202370 -0.218184
						CHANNELS 6 Xposition Yposition Zposition Xrotation Yrotation Zrotation
						End Site
						{
							OFFSET 1.932001 -7.202369 -0.218186
						}
					}
				}
			}
		}
	}
	JOINT RightUpLeg
	{
		OFFSET -11.550200 -0.962900 -6.484497
		CHANNELS 6 Xposition Yposition Zposition Xrotation Yrotation Zrotation
		JOINT RightLeg
		{
			OFFSET 1.017456 5.298177 -42.346931
			CHANNELS 3 Xrotation Yrotation Zrotation
			JOINT RightFoot
			{
				OFFSET -1.017460 4.622001 -36.540489
				CHANNELS 3 Xrotation Yrotation Zrotation
				JOINT RightToeBase
				{
					OFFSET -4.050694 -14.615995 -11.935047
					CHANNELS 6 Xposition Yposition Zposition Xrotation Yrotation Zrotation
					JOINT End.002
					{
						OFFSET -1.931982 -6.980837 -0.217942
						CHANNELS 3 Xrotation Yrotation Zrotation
						End Site
						{
							OFFSET -1.931982 -6.980837 -0.217942
						}
					}
				}
			}
		}
	}
}
MOTION
Frames: 4
Frame Time: 0.033333
0.000000 0.000000 98.141838 1.933532 -0.563682 0.019029 -0.000000 0.779701 11.654684 6.179535 0.611705 -1.334341 -0.000000 0.909651 13.597114 2.446137 -1.231254 -2.420027 -0.000000 1.039609 15.539598 2.415861 -1.340898 -2.375914 0.000001 1.169556 17.482061 -0.485607 0.237321 2.129192 0.000001 -0.288894 0.554084 -3.341429 1.870846 4.533446 -0.000000 -12.743017 24.441833 0.000001 0.000000 -0.000000 7.385900 1.218601 16.359047 2.692022 14.193119 -9.460535 42.070694 50.198899 -40.270734 0.000013 0.000003 -11.061372 2.605299 10.573540 3.628469 3.024045 -2.688755 -0.384945 5.950016 -10.827541 3.644045 2.518860 -1.454285 -1.454283 7.405376 -6.300005 8.418227 2.700461 -1.559111 -1.559117 -0.843344 -21.181395 -7.857722 2.400583 -1.385975 -1.386014 0.000007 0.000009 -0.000005 10.221869 -2.176327 -0.339521 -0.908924 17.654523 -4.361127 3.036610 -0.000005 0.000002 -0.209840 15.093939 1.583809 2.891187 0.000001 0.000009 -0.209847 15.093960 1.583771 2.665304 0.000000 -0.000015 -0.000002 -0.000001 0.000002 9.958997 0.000005 -0.000024 -1.813320 26.562186 5.017451 4.455506 -0.000010 -0.000025 -0.128927 11.897852 1.237187 2.950962 0.000003 0.000003 -0.176821 13.886793 1.451764 2.632921 -0.000009 0.000003 -0.000001 0.000001 0.000005 9.774629 1.949945 -0.033608 -1.884753 27.239935 7.650360 4.281704 -0.000002 0.000001 -0.350314 19.315350 2.058382 2.522446 -0.000011 -0.000032 -0.430640 21.300023 2.289809 2.283386 -0.000004 -0.000022 0.000002 -0.000003 0.000002 8.744863 4.021747 -0.313803 -3.048445 33.609373 10.456885 2.903589 0.000000 0.000004 -0.291580 17.693199 1.873421 2.485106 -0.000007 0.000004 -0.291604 17.693151 1.873382 1.892296 0.000004 0.000001 0.000001 -0.000003 0.000002 -7.385893 1.120485 16.359018 1.714995 -15.675187 4.295239 31.685743 -41.922451 39.796862 0.000003 -0.000015 23.198772 -1.273193 -5.903318 0.942416 -3.318515 -2.716115 -0.373364 12.810903 3.813823 -3.098991 -2.667447 -1.540052 -1.540050 7.608598 7.640443 -19.193347 -2.582244 -1.490865 -1.490860 -15.801433 12.123025 -1.602614 -2.023811 -1.168453 -1.168443 0.000003 0.000006 0.000006 -10.437471 -2.304648 -0.071260 -1.087077 -20.739705 4.278771 -0.431129 -23.729156 -2.052008 -2.976324 0.000007 -0.000001 -0.079174 -10.478869 -0.863313 -2.474912 -0.000004 -0.000028 0.000004 0.000007 -0.000002 -10.430176 0.000001 -0.000004 -1.248019 -22.215682 -0.353825 -3.371088 -0.000003 0.000003 -1.049895 -35.265185 -3.302316 -3.308324 0.000004 -0.000021 -0.315997 -20.511241 -1.746423 -2.817620 -0.000007 0.000004 0.000003 -0.000003 0.000004 -10.235483 1.889331 0.259364 -1.438719 -24.327863 -2.837490 -3.114123 0.000001 -0.000021 -2.216005 -47.275926 -5.060415 -2.952406 0.000001 0.000018 -0.406412 -23.085112 -1.989821 -2.603793 0.000008 0.000017 0.000002 0.000002 0.000001 -8.570028 3.954556 -0.153546 -2.197221 -29.265185 -3.944152 -2.966899 0.000009 -0.000017 -0.648376 -28.588450 -2.544393 -2.534704 0.000008 0.000009 -0.185119 -15.875926 -1.327555 -2.244206 0.000005 0.000023 0.000001 -0.000002 0.000002 11.550200 -0.044496 -6.484515 -32.174026 -4.820411 9.210343 58.090656 0.536960 -4.656791 3.604725 1.713263 0.134363 4.050711 -14.350667 -11.935527 -8.204340 -0.000105 -0.000067 1.932001 -7.202377 -0.218187 0.000001 0.000000 -0.000004 -11.550196 -0.962901 -6.484507 -16.436724 -0.464511 -7.175043 17.747451 3.517235 3.167115 -4.496156 -0.516840 -0.143733 -4.050697 -14.615995 -11.935045 -4.971816 0.000026 0.000014 -0.000002 -0.000000 -0.000008 
0.000000 0.000000 98.339813 2.529932 -0.675937 0.029865 -0.000000 0.779701 11.654686 5.785678 0.786919 -0.410863 0.000000 0.909653 13.597120 2.212485 -0.676186 -1.840924 -0.000000 1.039611 15.539615 2.193049 -0.769569 -1.797559 0.000000 1.169555 17.482037 -0.444908 0.364668 1.886140 0.000000 -0.288894 0.554094 -2.943381 1.872403 3.318737 0.000000 -12.743011 24.441864 -0.000001 0.000000 0.000000 7.385898 1.218600 16.359024 2.464798 14.041617 -8.448983 42.509352 53.525143 -36.806838 0.000596 -0.000106 -11.041846 2.370732 13.694899 2.410477 3.024053 -2.688758 -0.384925 5.950010 -10.827543 3.644046 2.518875 -1.454278 -1.454266 6.697740 -6.692636 7.977983 2.700475 -1.559109 -1.559124 -0.708702 -21.155039 -7.507863 2.400571 -1.385975 -1.386014 0.000000 0.000008 -0.000007 10.221888 -2.176327 -0.339533 -0.821234 16.659009 -5.090716 3.036616 -0.000006 0.000010 -0.210191 15.107514 1.585158 2.891170 -0.000006 -0.000004 -0.210235 15.107545 1.585269 2.665304 -0.000004 -0.000017 -0.000001 -0.000004 0.000001 9.958996 0.000004 -0.000029 -1.731096 25.801178 4.747925 4.455497 -0.000005 -0.000015 -0.128915 11.895757 1.237620 2.950950 0.000007 0.000013 -0.176544 13.884701 1.451303 2.632918 0.000001 -0.000010 -0.000001 -0.000000 0.000005 9.774620 1.949945 -0.033625 -1.775391 26.205283 7.538092 4.281685 -0.000003 -0.000016 -0.351118 19.318398 2.058728 2.522445 -0.000005 -0.000039 -0.430959 21.302832 2.289508 2.283393 -0.000003 -0.000003 -0.000000 -0.000000 0.000002 8.744875 4.021745 -0.313800 -2.991450 33.057036 10.604297 2.903593 -0.000004 0.000007 -0.291282 17.699320 1.874107 2.485121 -0.000003 -0.000001 -0.290852 17.699289 1.872915 1.892297 -0.000001 0.000017 0.000001 0.000003 -0.000005 -7.385900 1.120484 16.359011 1.767395 -15.413903 4.615921 31.352904 -39.407541 41.106339 0.000022 -0.000015 25.998994 -1.369488 -8.075917 -1.886990 -3.318511 -2.716107 -0.373363 12.810903 3.813821 -3.098994 -2.667448 -1.540062 -1.540039 7.458148 7.705118 -18.943991 -2.582267 -1.490871 -1.490853 -15.810638 12.134879 -1.594379 -2.023816 -1.168451 -1.168449 -0.000000 0.000004 0.000005 -10.437439 -2.304647 -0.071263 -1.116106 -21.116998 4.293751 -0.431335 -23.734482 -2.052521 -2.976331 -0.000003 0.000020 -0.079271 -10.484207 -0.863750 -2.474913 -0.000006 -0.000024 -0.000001 -0.000002 0.000004 -10.430158 0.000003 0.000002 -1.284997 -22.670619 -0.268846 -3.371111 -0.000001 0.000002 -1.052133 -35.303708 -3.306454 -3.308316 0.000000 0.000005 -0.317346 -20.552686 -1.750279 -2.817629 -0.000003 0.000015 -0.000001 -0.000001 0.000003 -10.235459 1.889332 0.259384 -1.460653 -24.578890 -2.733349 -3.114080 0.000010 -0.000016 -2.220319 -47.315685 -5.066261 -2.952425 0.000005 0.000008 -0.407896 -23.124439 -1.993602 -2.603790 -0.000001 -0.000014 0.000003 0.000000 -0.000002 -8.570007 3.954562 -0.153538 -2.258538 -29.499170 -3.809187 -2.966915 0.000004 0.000003 -0.649559 -28.624092 -2.548161 -2.534708 0.000007 0.000017 -0.186350 -15.926715 -1.332026 -2.244199 0.000001 -0.000002 -0.000001 0.000001 -0.000001 11.550200 -0.044498 -6.484493 -34.626009 -4.015170 9.138143 44.118811 2.056917 -2.258572 3.790464 3.307333 0.187443 4.050713 -14.350672 -11.935527 -6.394580 -0.000088 -0.000070 1.931995 -7.202377 -0.218185 0.000000 -0.000000 -0.000005 -11.550197 -0.962899 -6.484491 -10.485866 -0.923805 -7.944251 11.289143 4.280712 4.641328 -5.513837 -1.253383 -0.231981 -4.050697 -14.615995 -11.935044 -4.671666 0.000022 0.000011 -0.000002 -0.000001 -0.000008 
-0.000000 0.000000 98.189613 3.177962 -0.210763 0.011702 -0.000000 0.779700 11.654675 5.341991 0.031680 0.632291 -0.000000 0.909651 13.597117 2.014336 0.033859 -1.243922 0.000000 1.039609 15.539607 1.996172 -0.044622 -1.211861 -0.000000 1.169554 17.482035 -0.531543 0.248484 1.552792 0.000001 -0.288892 0.554099 -2.905786 1.872074 2.300746 -0.000000 -12.743010 24.441849 0.000001 -0.000000 -0.000000 7.385900 1.218601 16.359041 2.263405 13.958877 -7.516375 42.207291 56.844202 -32.967137 -0.000003 -0.000001 -10.936232 2.536196 15.242974 0.675088 3.024051 -2.688751 -0.384939 5.950016 -10.827539 3.644048 2.518881 -1.454275 -1.454264 6.721257 -6.645486 7.808611 2.700450 -1.559113 -1.559128 -0.698582 -21.143238 -7.512914 2.400572 -1.385977 -1.386013 0.000006 0.000008 -0.000007 10.221861 -2.176326 -0.339524 -0.811248 16.507290 -5.014336 3.036627 -0.000004 0.000035 -0.210568 15.121105 1.586599 2.891187 -0.000006 0.000029 -0.210618 15.121127 1.586766 2.665308 -0.000003 -0.000026 -0.000001 0.000001 -0.000004 9.958978 0.000005 0.000004 -1.724474 25.738806 4.725980 4.455499 -0.000006 -0.000031 -0.128991 11.893684 1.239568 2.950940 0.000002 -0.000011 -0.175915 13.882615 1.450834 2.632909 0.000007 0.000013 0.000000 -0.000001 0.000006 9.774598 1.949947 -0.033615 -1.764835 26.149207 7.530912 4.281711 -0.000006 0.000013 -0.351917 19.321453 2.059086 2.522433 -0.000003 -0.000024 -0.431285 21.305641 2.289212 2.283397 -0.000003 -0.000013 0.000001 -0.000002 -0.000002 8.744863 4.021746 -0.313789 -2.980768 33.061363 10.470117 2.903579 -0.000000 -0.000011 -0.292024 17.705409 1.874792 2.485118 0.000004 0.000006 -0.291310 17.705389 1.872454 1.892301 -0.000003 0.000018 0.000001 -0.000001 0.000001 -7.385899 1.120484 16.359009 1.785050 -14.659099 4.948983 30.430962 -36.844871 41.748568 -0.000001 -0.000019 30.315146 -0.930393 -10.331705 -4.819660 -3.318514 -2.716109 -0.373356 12.810901 3.813822 -3.098998 -2.667465 -1.540066 -1.540027 7.635790 7.500958 -17.881934 -2.582259 -1.490870 -1.490856 -15.833130 12.126314 -1.523435 -2.023807 -1.168457 -1.168455 -0.000003 0.000007 0.000004 -10.437472 -2.304648 -0.071260 -1.223961 -22.475658 4.323365 -0.428247 -23.654876 -2.044781 -2.976336 0.000006 0.000014 -0.078031 -10.404577 -0.857071 -2.474923 -0.000004 -0.000026 0.000006 0.000005 -0.000001 -10.430175 0.000003 0.000001 -1.360208 -23.565189 -0.234318 -3.371119 -0.000003 -0.000004 -1.055101 -35.342182 -3.310600 -3.308292 0.000002 -0.000021 -0.317951 -20.578808 -1.752699 -2.817618 -0.000000 0.000004 -0.000001 -0.000002 -0.000000 -10.235469 1.889332 0.259368 -1.544114 -25.509582 -2.513957 -3.114094 -0.000001 -0.000013 -2.223802 -47.355477 -5.072116 -2.952431 0.000007 0.000016 -0.409831 -23.175447 -1.998517 -2.603794 0.000004 0.000017 0.000001 0.000001 -0.000001 -8.570052 3.954560 -0.153538 -2.505065 -30.311567 -3.200650 -2.966917 0.000005 0.000005 -0.651921 -28.659696 -2.551928 -2.534714 0.000007 -0.000017 -0.186317 -15.925370 -1.331913 -2.244209 0.000003 0.000009 0.000001 0.000000 -0.000001 11.550200 -0.044499 -6.484500 -34.205792 -3.207267 8.481769 23.922736 2.581690 1.011825 7.363425 4.209888 0.090476 4.050712 -14.350666 -11.935527 -5.376494 -0.000070 -0.000050 1.931997 -7.202374 -0.218185 0.000001 -0.000001 -0.000006 -11.550195 -0.962898 -6.484511 -6.527944 -1.179429 -9.586667 8.956847 4.025544 6.715506 -7.675837 -0.514764 -0.173529 -4.050698 -14.615996 -11.935045 -4.486985 0.000025 0.000012 -0.000001 -0.000001 -0.000006 
0.000000 -0.000000 97.071602 3.630744 1.325184 -0.084080 -0.000000 0.779700 11.654691 4.875435 -2.245672 2.273364 -0.000000 0.909650 13.597131 1.962597 1.037266 -0.652282 0.000000 1.039609 15.539612 1.923866 0.974564 -0.645142 -0.000000 1.169553 17.482033 -0.622047 -0.338337 1.108996 0.000000 -0.288894 0.554129 -3.263840 2.194261 1.508042 -0.000001 -12.743010 24.441879 0.000000 -0.000000 -0.000000 7.385899 1.218605 16.359043 2.146044 13.821299 -7.008595 41.192997 60.172949 -28.898069 0.000003 -0.000000 -10.450624 2.085852 15.550480 -0.932209 3.024038 -2.688760 -0.384907 5.950015 -10.827543 3.644046 2.518873 -1.454281 -1.454262 6.931219 -6.512555 7.372227 2.700460 -1.559118 -1.559123 -0.730251 -21.114778 -7.574599 2.400579 -1.385983 -1.386001 0.000002 0.000008 -0.000005 10.221862 -2.176329 -0.339531 -0.799925 16.334503 -4.927216 3.036631 -0.000002 0.000018 -0.210465 15.134647 1.586207 2.891173 -0.000002 -0.000009 -0.211006 15.134707 1.588258 2.665302 -0.000004 -0.000004 0.000001 0.000001 -0.000000 9.958997 0.000003 -0.000014 -1.712235 25.622954 4.734893 4.455508 -0.000001 -0.000028 -0.128875 11.891576 1.237796 2.950944 0.000003 -0.000006 -0.176169 13.880511 1.450365 2.632906 -0.000001 0.000014 -0.000002 0.000004 0.000003 9.774619 1.949944 -0.033618 -1.762646 26.130210 7.566162 4.281713 -0.000001 0.000002 -0.352717 19.324501 2.059441 2.522462 -0.000001 -0.000031 -0.431033 21.308452 2.287345 2.283395 0.000002 -0.000001 0.000003 0.000001 -0.000000 8.744832 4.021748 -0.313785 -2.973468 33.068026 10.392683 2.903579 -0.000001 -0.000004 -0.290720 17.667669 1.870529 2.485108 -0.000001 -0.000006 -0.291038 17.667645 1.871566 1.892293 0.000000 -0.000001 -0.000000 0.000002 -0.000002 -7.385897 1.120481 16.359007 1.813994 -13.814677 5.391390 28.661786 -34.159648 41.920160 0.000006 -0.000000 33.208957 -0.273061 -11.951176 -4.787001 -3.318524 -2.716117 -0.373347 12.810905 3.813828 -3.098994 -2.667473 -1.540064 -1.540030 7.665205 7.341965 -16.132786 -2.582259 -1.490864 -1.490869 -15.870518 12.130076 -1.429955 -2.023811 -1.168445 -1.168467 0.000001 0.000006 0.000003 -10.437469 -2.304656 -0.071265 -1.326366 -23.755540 4.386578 -0.425939 -23.633740 -2.042726 -2.976337 0.000013 -0.000006 -0.078333 -10.424230 -0.858710 -2.474925 -0.000002 -0.000040 0.000004 0.000005 -0.000000 -10.430171 -0.000004 0.000024 -1.412057 -24.165168 -0.236041 -3.371111 0.000003 0.000029 -1.056583 -35.359695 -3.313906 -3.308323 0.000004 0.000007 -0.319051 -20.604896 -1.755116 -2.817619 0.000005 -0.000001 0.000000 0.000003 -0.000002 -10.235476 1.889324 0.259381 -1.620837 -26.343225 -2.286190 -3.114104 -0.000002 -0.000022 -2.230518 -47.395082 -5.077977 -2.952433 0.000002 0.000017 -0.409094 -23.177812 -1.998742 -2.603796 -0.000000 0.000017 0.000002 0.000001 -0.000001 -8.570018 3.954545 -0.153537 -2.769548 -31.074342 -2.500489 -2.966913 0.000003 -0.000005 -0.651976 -28.668008 -2.552812 -2.534716 0.000015 -0.000000 -0.186284 -15.924036 -1.331794 -2.244195 0.000002 -0.000001 -0.000000 0.000005 -0.000002 11.550200 -0.044502 -6.484498 -36.768237 -3.843125 6.663069 11.219375 1.086805 3.333617 8.228413 5.891901 0.018209 4.050714 -14.350663 -11.935528 -5.861268 -0.000076 -0.000048 1.931993 -7.202371 -0.218187 0.000001 0.000000 -0.000005 -11.550197 -0.962898 -6.484503 -4.730058 -1.256389 -11.406322 11.999745 3.193973 6.345848 -11.738338 -0.572288 2.755678 -4.050697 -14.615995 -11.935044 -4.544593 0.000021 0.000009 -0.000001 -0.000000 -0.000009 
